<svg version="1.1" id="Layer_1" xmlns="http://www.w3.org/2000/svg" xmlns:xlink="http://www.w3.org/1999/xlink" x="0px" y="0px"
	 width="100%" viewBox="0 0 650 520" enable-background="new 0 0 650 520" xml:space="preserve">
<path fill="#EF4444" opacity="1.000000" stroke="none" 
	d="
M323.000000,521.000000 
	C215.333359,521.000000 108.166718,521.000000 1.000057,521.000000 
	C1.000038,347.666748 1.000038,174.333466 1.000019,1.000151 
	C217.666550,1.000100 434.333099,1.000100 650.999756,1.000050 
	C650.999817,174.333176 650.999817,347.666351 650.999878,520.999756 
	C541.833313,521.000000 432.666656,521.000000 323.000000,521.000000 
M235.231049,163.179489 
	C238.355499,166.469620 241.479950,169.759750 244.549896,172.992493 
	C242.268219,175.753937 240.385071,178.033066 239.435867,179.181870 
	C245.105438,185.476318 250.424316,191.555740 255.936661,197.454376 
	C261.998901,203.941467 268.184326,210.316208 274.415497,216.641953 
	C282.383972,224.731323 290.462555,232.712143 298.456360,240.776764 
	C299.095459,241.421570 299.955780,242.431931 299.847443,243.139862 
	C299.014740,248.579391 301.749329,252.214005 306.113373,255.123535 
	C304.858368,256.637909 303.917908,257.772766 302.884735,259.019470 
	C298.659393,255.163910 294.101501,252.457932 294.809174,246.113129 
	C294.962097,244.742142 293.294281,242.915924 292.076294,241.683731 
	C281.418243,230.901245 270.630035,220.247437 259.974518,209.462479 
	C256.253632,205.696396 252.795349,201.670807 249.255966,197.806091 
	C242.860016,204.296936 237.267365,209.972580 231.695419,215.627197 
	C234.572006,218.619431 237.639954,221.810699 241.632339,225.963593 
	C242.410461,224.607391 243.721176,223.207840 243.432816,222.677216 
	C241.922913,219.898666 240.007645,217.340408 237.821091,214.093475 
	C240.602921,211.524109 243.283951,208.760391 246.301270,206.432556 
	C247.232010,205.714478 249.637390,205.547668 250.409180,206.223282 
	C253.467224,208.900314 256.145477,212.011185 259.074829,215.076691 
	C256.724640,217.667511 254.635300,219.970764 252.856018,221.932205 
	C277.328461,246.464661 301.536041,270.731628 325.703278,294.958130 
	C349.772766,270.822754 374.231232,246.297318 398.805298,221.655945 
	C396.878387,219.474991 394.937439,217.278137 393.035126,215.125061 
	C403.853119,203.023880 402.603149,201.404510 413.757538,215.564331 
	C411.627777,217.826279 409.476379,220.111206 407.325928,222.395126 
	C410.658325,225.501633 413.395508,223.873962 419.692352,215.349838 
	C414.152008,209.889618 408.632324,204.449738 402.986938,198.885986 
	C403.143158,198.811874 402.775421,198.885254 402.554260,199.105713 
	C387.923676,213.688492 373.289612,228.267868 358.724121,242.915451 
	C357.868439,243.775970 357.035614,245.229660 357.107819,246.348236 
	C357.520660,252.745743 353.033905,255.621368 349.043243,258.876740 
	C345.522705,256.889557 345.564697,255.012451 347.971436,252.365952 
	C349.404602,250.790009 350.045959,248.481171 350.990173,246.476761 
	C352.129395,244.058258 352.645752,241.055664 354.407196,239.265884 
	C371.934814,221.456360 389.668304,203.849503 407.330078,186.171844 
	C409.292786,184.207382 411.171051,182.158569 413.181702,180.051239 
	C410.912750,177.499207 408.965790,175.309341 407.080933,173.189346 
	C416.040131,161.179367 418.413086,161.089203 427.394989,172.105499 
	C427.585846,172.339554 427.606110,172.712723 427.468079,172.286560 
	C427.812561,176.545151 419.520386,177.238098 423.839600,182.199860 
	C427.406067,179.011398 430.707489,176.059906 434.041656,173.079132 
	C428.397064,167.291351 423.013519,161.771240 417.506592,156.124634 
	C416.044159,157.428436 414.903381,158.356644 413.863281,159.386520 
	C403.515594,169.632446 393.195465,179.906204 382.845947,190.150284 
	C370.638367,202.233490 358.309570,214.197403 346.295898,226.470093 
	C344.465912,228.339539 343.467255,231.521240 343.121307,234.228546 
	C342.597626,238.326889 343.283356,242.571960 342.864807,246.694733 
	C342.637939,248.929367 341.725800,251.597580 340.177643,253.089340 
	C337.027710,256.124573 335.171844,259.415436 336.030518,263.701538 
	C337.842255,272.745056 331.854492,277.192841 326.086823,281.898438 
	C319.254028,277.128784 314.351410,271.827148 315.880615,262.829468 
	C316.210999,260.885590 315.351196,257.880798 313.928284,256.660187 
	C309.821930,253.137527 308.466675,249.034088 308.950684,243.842636 
	C309.258667,240.539200 309.322083,237.142380 308.893250,233.866211 
	C308.618225,231.765167 307.738983,229.322144 306.293579,227.859589 
	C289.196075,210.558945 271.931122,193.423904 254.731415,176.224106 
	C248.030228,169.522888 241.382462,162.768250 234.255005,155.578629 
	C229.061111,160.645477 224.304962,165.457413 219.347168,170.051773 
	C216.721085,172.485367 217.538879,174.165970 219.842331,176.071213 
	C222.362366,178.155563 224.751083,180.398621 227.519089,182.858719 
	C232.846619,177.427490 223.974350,176.537231 224.681763,171.606415 
	C227.374191,169.258438 230.945724,166.143829 235.231049,163.179489 
M213.365585,177.376205 
	C212.169510,178.199829 210.816635,178.865158 209.801208,179.871140 
	C197.383133,192.173477 184.999084,204.510315 172.636612,216.868591 
	C150.858093,238.639755 129.099747,260.431061 107.335251,282.216248 
	C104.182129,285.372375 104.484039,287.027496 108.498352,288.702698 
	C114.616158,291.255615 120.269363,290.241516 124.923424,285.589233 
	C156.600311,253.924515 188.258484,222.241074 219.910416,190.551422 
	C221.032242,189.428223 222.025162,188.176285 223.133621,186.921585 
	C219.817322,183.575165 216.896286,180.627579 213.365585,177.376205 
M520.692932,258.797302 
	C493.608215,231.458389 466.523529,204.119476 439.696625,177.040771 
	C435.645752,180.706573 432.266663,183.764435 428.704529,186.987961 
	C430.519073,188.883957 431.865051,190.343384 433.266907,191.746994 
	C447.870544,206.369034 462.482117,220.983124 477.093475,235.597473 
	C493.590149,252.097504 510.066742,268.617706 526.597717,285.083313 
	C533.099670,291.559570 540.439575,291.727448 547.130859,285.269989 
	C538.449097,276.641083 529.770447,268.015228 520.692932,258.797302 
M148.783615,288.586151 
	C150.255508,287.524048 151.897461,286.633698 153.171753,285.372040 
	C161.570831,277.056122 169.877884,268.647400 178.238953,260.292969 
	C200.230530,238.318832 222.234344,216.356949 244.407059,194.216675 
	C241.041107,190.911224 237.867157,187.794327 233.885391,183.884125 
	C200.048843,217.740677 166.209793,251.599731 132.276047,285.553528 
	C138.020386,290.230621 141.851044,290.885223 148.783615,288.586151 
M444.002777,210.496887 
	C435.270935,201.679596 426.539124,192.862305 417.766602,184.003891 
	C414.020264,187.783813 410.875580,190.956680 407.542419,194.319717 
	C408.548157,195.407349 409.478455,196.496353 410.494141,197.498795 
	C420.283020,207.160156 430.148590,216.744720 439.869385,226.473938 
	C451.667297,238.282028 463.322998,250.232056 475.085571,262.075623 
	C482.471863,269.512787 490.205048,276.624756 497.294159,284.331848 
	C503.464233,291.039764 511.523132,291.940033 519.050293,285.401642 
	C494.181213,260.579071 469.342834,235.787155 444.002777,210.496887 
M454.486298,249.015060 
	C444.708221,239.056427 434.930176,229.097809 425.222900,219.211288 
	C421.247070,223.047684 417.871307,226.305023 413.492615,230.530106 
	C418.323273,234.833115 423.109741,238.739441 427.486206,243.061035 
	C441.686859,257.083618 455.682190,271.314026 469.870392,285.349365 
	C476.258972,291.669067 485.364960,291.554688 490.643646,285.004547 
	C478.781586,273.203918 466.879761,261.363739 454.486298,249.015060 
M177.539246,288.362854 
	C188.478806,277.797760 199.453018,267.268219 210.346146,256.655487 
	C218.042282,249.157425 225.541794,241.456009 233.300385,234.024231 
	C237.197083,230.291687 237.341736,229.136002 233.765625,225.264862 
	C231.858292,223.200195 230.382675,220.736725 229.042557,218.904816 
	C205.838013,242.090012 183.851181,264.058502 161.697800,286.193420 
	C165.798676,291.033875 171.201462,290.458984 177.539246,288.362854 
M277.018066,254.482056 
	C272.436493,249.687897 267.854919,244.893723 263.552612,240.391769 
	C257.194000,246.565918 251.518478,252.076797 244.976974,258.428558 
	C248.503845,261.573181 252.255081,264.615021 255.651978,268.011292 
	C262.214355,274.572540 262.128876,274.652374 268.919617,268.811249 
	C269.123199,268.636139 269.514435,268.679199 271.157166,268.361969 
	C284.282990,281.760742 297.936615,295.698303 312.105988,310.162323 
	C315.295471,306.239197 318.179932,302.691284 321.537964,298.560822 
	C307.293213,284.460114 292.404663,269.722107 277.018066,254.482056 
M353.009766,276.509796 
	C345.216736,284.170654 337.423737,291.831543 329.511566,299.609528 
	C333.263702,303.393951 336.359467,306.516357 339.917206,310.104706 
	C353.867798,295.825531 367.619659,281.749756 381.597473,267.442749 
	C383.467163,269.167175 384.829254,270.139679 385.827911,271.400146 
	C388.353210,274.587433 390.550507,274.162506 393.137268,271.377411 
	C396.758514,267.478516 400.760925,263.928650 404.296356,259.958801 
	C405.128754,259.024109 405.481201,256.345703 404.804932,255.595093 
	C400.043945,250.310532 394.956238,245.320312 389.403015,239.654694 
	C377.080780,252.135925 365.295624,264.073181 353.009766,276.509796 
M449.208313,289.680664 
	C454.350037,290.506927 458.970795,289.783783 462.059998,286.110229 
	C442.184540,266.170288 422.599152,246.521301 402.965546,226.823975 
	C399.930481,229.797806 396.615234,233.046143 393.116364,236.474442 
	C394.429565,237.850296 395.540710,239.066147 396.706146,240.227524 
	C410.693420,254.166626 424.629486,268.158081 438.730713,281.981018 
	C441.637024,284.829926 445.167114,287.042419 449.208313,289.680664 
M250.111694,227.649750 
	C247.637253,225.044815 246.624191,227.953781 245.483566,229.086533 
	C227.649475,246.797958 209.885925,264.580475 192.123749,282.364197 
	C191.125626,283.363525 190.280197,284.515350 189.401520,285.551575 
	C195.877182,292.647705 204.627151,290.155029 209.084183,285.685211 
	C220.983551,273.751709 232.921677,261.856812 244.823853,249.926102 
	C249.339661,245.399475 253.799164,240.816666 259.141937,235.388092 
	C255.918304,232.629776 253.267624,230.361725 250.111694,227.649750 
M343.899139,200.389862 
	C340.445251,203.667435 336.764862,206.745300 333.628387,210.302734 
	C331.936432,212.221756 330.277527,214.916428 330.156403,217.338821 
	C329.732697,225.810699 330.201691,234.325439 329.846100,242.803558 
	C329.741241,245.303925 328.031067,247.736969 327.056580,250.200867 
	C326.226105,250.144394 325.395660,250.087921 324.565216,250.031464 
	C323.718994,247.597229 322.580292,245.217499 322.113403,242.712570 
	C321.693237,240.458038 321.687683,238.014267 322.053589,235.743301 
	C324.483429,220.664261 320.136566,208.472290 307.240875,199.701050 
	C305.620056,198.598618 304.307434,197.043137 301.997955,194.908005 
	C301.997955,201.297684 301.854584,206.285446 302.048584,211.260056 
	C302.177185,214.557663 303.820190,216.673569 307.483063,216.542191 
	C307.639679,213.932953 307.776062,211.661041 307.946686,208.818344 
	C313.568939,212.879532 316.767517,216.980606 316.146057,223.782532 
	C315.512299,230.718628 316.102264,237.759567 315.981201,244.751556 
	C315.873169,250.991592 320.534485,253.830841 324.522400,257.153809 
	C325.030121,257.576843 326.114075,257.682770 326.785034,257.471558 
	C329.958649,256.472656 335.987701,247.727112 335.995544,244.247360 
	C336.012787,236.587189 336.310089,228.910843 335.908264,221.271851 
	C335.590668,215.233780 339.439117,212.762146 343.803589,209.512344 
	C344.042084,212.810593 344.226410,215.359894 344.429901,218.174255 
	C350.230835,214.012527 352.056549,204.154129 348.861420,195.190125 
	C347.285492,196.847824 345.847290,198.360672 343.899139,200.389862 
M276.181183,310.692596 
	C275.732208,312.201813 274.419891,314.489594 274.969116,315.098572 
	C279.919434,320.587677 285.196228,325.782349 290.964264,331.661804 
	C297.046326,325.399292 302.471161,319.813507 308.612213,313.490265 
	C303.094604,308.226990 298.070129,303.203949 292.711670,298.566864 
	C291.892944,297.858368 289.038391,298.364075 287.969330,299.286377 
	C284.013885,302.698792 280.412079,306.521088 276.181183,310.692596 
M316.008453,356.491425 
	C319.269440,359.706360 322.530426,362.921295 325.293274,365.645111 
	C331.435272,359.641937 337.053467,354.150726 341.725159,349.584656 
	C336.213135,344.004547 330.696320,338.419586 325.402832,333.060699 
	C320.343475,338.105255 314.864685,343.568024 308.014221,350.398468 
	C310.477905,352.237152 312.992889,354.114136 316.008453,356.491425 
M355.459839,326.013306 
	C356.808777,327.908539 358.157715,329.803772 359.703705,331.975830 
	C366.464844,325.013977 372.056641,319.256165 376.853760,314.316620 
	C371.374451,308.717041 365.949341,303.172821 361.149292,298.267395 
	C355.862427,303.546112 350.277649,309.122284 343.912445,315.477692 
	C347.348511,318.597656 351.157288,322.056000 355.459839,326.013306 
M334.205048,332.298248 
	C335.819641,334.393494 337.434204,336.488770 339.155151,338.722046 
	C343.463470,334.498352 346.717285,331.308411 349.489319,328.590820 
	C346.177460,324.850830 343.153839,321.436371 340.269836,318.179565 
	C336.588776,321.592865 333.238556,324.699371 329.533875,328.134583 
	C331.232147,329.625824 332.468781,330.711761 334.205048,332.298248 
M319.373566,325.027985 
	C317.325928,322.242645 315.278259,319.457275 313.230621,316.671936 
	C313.068634,317.606415 312.906647,318.540894 312.744629,319.475372 
	C309.101379,322.247620 305.458099,325.019867 302.264191,327.450195 
	C305.855438,331.159271 308.914734,334.318939 312.207092,337.719330 
	C314.912262,334.900665 317.693695,332.279602 320.070251,329.332092 
	C320.666992,328.591980 319.964691,326.804413 319.373566,325.027985 
M318.503571,310.990021 
	C315.836609,312.909363 315.932129,314.842468 318.388611,316.900360 
	C319.786835,318.071747 321.354858,319.186127 322.353210,320.660217 
	C324.741699,324.186859 327.160980,322.925354 329.336884,320.790283 
	C331.566345,318.602722 333.429749,316.042145 335.667053,313.391724 
	C332.534027,310.250000 329.423004,307.130310 324.913239,302.608032 
	C322.778961,305.453766 320.890594,307.971649 318.503571,310.990021 
M327.413757,267.027710 
	C325.711945,266.806519 324.010132,266.585297 321.143829,266.212738 
	C322.473938,269.155273 323.619904,271.690369 324.765839,274.225494 
	C325.522217,274.270020 326.278625,274.314545 327.035004,274.359070 
	C327.995789,271.918335 328.956543,269.477570 329.917328,267.036804 
	C329.240295,266.891693 328.563263,266.746613 327.413757,267.027710 
z"/>
<path fill="#DDBD61" opacity="1.000000" stroke="none" 
	d="
M234.874146,163.104370 
	C230.945724,166.143829 227.374191,169.258438 224.681763,171.606415 
	C223.974350,176.537231 232.846619,177.427490 227.519089,182.858719 
	C224.751083,180.398621 222.362366,178.155563 219.842331,176.071213 
	C217.538879,174.165970 216.721085,172.485367 219.347168,170.051773 
	C224.304962,165.457413 229.061111,160.645477 234.255005,155.578629 
	C241.382462,162.768250 248.030228,169.522888 254.731415,176.224106 
	C271.931122,193.423904 289.196075,210.558945 306.293579,227.859589 
	C307.738983,229.322144 308.618225,231.765167 308.893250,233.866211 
	C309.322083,237.142380 309.258667,240.539200 308.950684,243.842636 
	C308.466675,249.034088 309.821930,253.137527 313.928284,256.660187 
	C315.351196,257.880798 316.210999,260.885590 315.880615,262.829468 
	C314.351410,271.827148 319.254028,277.128784 326.086823,281.898438 
	C331.854492,277.192841 337.842255,272.745056 336.030518,263.701538 
	C335.171844,259.415436 337.027710,256.124573 340.177643,253.089340 
	C341.725800,251.597580 342.637939,248.929367 342.864807,246.694733 
	C343.283356,242.571960 342.597626,238.326889 343.121307,234.228546 
	C343.467255,231.521240 344.465912,228.339539 346.295898,226.470093 
	C358.309570,214.197403 370.638367,202.233490 382.845947,190.150284 
	C393.195465,179.906204 403.515594,169.632446 413.863281,159.386520 
	C414.903381,158.356644 416.044159,157.428436 417.506592,156.124634 
	C423.013519,161.771240 428.397064,167.291351 434.041656,173.079132 
	C430.707489,176.059906 427.406067,179.011398 423.839600,182.199860 
	C419.520386,177.238098 427.812561,176.545151 427.468079,172.286560 
	C427.606110,172.712723 427.585846,172.339554 427.394989,172.105499 
	C418.413086,161.089203 416.040131,161.179367 407.080933,173.189346 
	C408.965790,175.309341 410.912750,177.499207 413.181702,180.051239 
	C411.171051,182.158569 409.292786,184.207382 407.330078,186.171844 
	C389.668304,203.849503 371.934814,221.456360 354.407196,239.265884 
	C352.645752,241.055664 352.129395,244.058258 350.990173,246.476761 
	C350.045959,248.481171 349.404602,250.790009 347.971436,252.365952 
	C345.564697,255.012451 345.522705,256.889557 349.043243,258.876740 
	C353.033905,255.621368 357.520660,252.745743 357.107819,246.348236 
	C357.035614,245.229660 357.868439,243.775970 358.724121,242.915451 
	C373.289612,228.267868 387.923676,213.688492 402.554260,199.105713 
	C402.775421,198.885254 403.143158,198.811874 402.986938,198.885986 
	C408.632324,204.449738 414.152008,209.889618 419.692352,215.349838 
	C413.395508,223.873962 410.658325,225.501633 407.325928,222.395126 
	C409.476379,220.111206 411.627777,217.826279 413.757538,215.564331 
	C402.603149,201.404510 403.853119,203.023880 393.035126,215.125061 
	C394.937439,217.278137 396.878387,219.474991 398.805298,221.655945 
	C374.231232,246.297318 349.772766,270.822754 325.703278,294.958130 
	C301.536041,270.731628 277.328461,246.464661 252.856018,221.932205 
	C254.635300,219.970764 256.724640,217.667511 259.074829,215.076691 
	C256.145477,212.011185 253.467224,208.900314 250.409180,206.223282 
	C249.637390,205.547668 247.232010,205.714478 246.301270,206.432556 
	C243.283951,208.760391 240.602921,211.524109 237.821091,214.093475 
	C240.007645,217.340408 241.922913,219.898666 243.432816,222.677216 
	C243.721176,223.207840 242.410461,224.607391 241.632339,225.963593 
	C237.639954,221.810699 234.572006,218.619431 231.695419,215.627197 
	C237.267365,209.972580 242.860016,204.296936 249.255966,197.806091 
	C252.795349,201.670807 256.253632,205.696396 259.974518,209.462479 
	C270.630035,220.247437 281.418243,230.901245 292.076294,241.683731 
	C293.294281,242.915924 294.962097,244.742142 294.809174,246.113129 
	C294.101501,252.457932 298.659393,255.163910 302.884735,259.019470 
	C303.917908,257.772766 304.858368,256.637909 306.113373,255.123535 
	C301.749329,252.214005 299.014740,248.579391 299.847443,243.139862 
	C299.955780,242.431931 299.095459,241.421570 298.456360,240.776764 
	C290.462555,232.712143 282.383972,224.731323 274.415497,216.641953 
	C268.184326,210.316208 261.998901,203.941467 255.936661,197.454376 
	C250.424316,191.555740 245.105438,185.476318 239.435867,179.181870 
	C240.385071,178.033066 242.268219,175.753937 244.549896,172.992493 
	C241.479950,169.759750 238.355499,166.469620 234.874146,163.104370 
z"/>
<path fill="#DDBD61" opacity="1.000000" stroke="none" 
	d="
M213.670410,177.528107 
	C216.896286,180.627579 219.817322,183.575165 223.133621,186.921585 
	C222.025162,188.176285 221.032242,189.428223 219.910416,190.551422 
	C188.258484,222.241074 156.600311,253.924515 124.923424,285.589233 
	C120.269363,290.241516 114.616158,291.255615 108.498352,288.702698 
	C104.484039,287.027496 104.182129,285.372375 107.335251,282.216248 
	C129.099747,260.431061 150.858093,238.639755 172.636612,216.868591 
	C184.999084,204.510315 197.383133,192.173477 209.801208,179.871140 
	C210.816635,178.865158 212.169510,178.199829 213.670410,177.528107 
z"/>
<path fill="#DEBC60" opacity="1.000000" stroke="none" 
	d="
M520.892334,259.093353 
	C529.770447,268.015228 538.449097,276.641083 547.130859,285.269989 
	C540.439575,291.727448 533.099670,291.559570 526.597717,285.083313 
	C510.066742,268.617706 493.590149,252.097504 477.093475,235.597473 
	C462.482117,220.983124 447.870544,206.369034 433.266907,191.746994 
	C431.865051,190.343384 430.519073,188.883957 428.704529,186.987961 
	C432.266663,183.764435 435.645752,180.706573 439.696625,177.040771 
	C466.523529,204.119476 493.608215,231.458389 520.892334,259.093353 
z"/>
<path fill="#DDBD61" opacity="1.000000" stroke="none" 
	d="
M148.430695,288.752472 
	C141.851044,290.885223 138.020386,290.230621 132.276047,285.553528 
	C166.209793,251.599731 200.048843,217.740677 233.885391,183.884125 
	C237.867157,187.794327 241.041107,190.911224 244.407059,194.216675 
	C222.234344,216.356949 200.230530,238.318832 178.238953,260.292969 
	C169.877884,268.647400 161.570831,277.056122 153.171753,285.372040 
	C151.897461,286.633698 150.255508,287.524048 148.430695,288.752472 
z"/>
<path fill="#DEBC62" opacity="1.000000" stroke="none" 
	d="
M444.253632,210.746063 
	C469.342834,235.787155 494.181213,260.579071 519.050293,285.401642 
	C511.523132,291.940033 503.464233,291.039764 497.294159,284.331848 
	C490.205048,276.624756 482.471863,269.512787 475.085571,262.075623 
	C463.322998,250.232056 451.667297,238.282028 439.869385,226.473938 
	C430.148590,216.744720 420.283020,207.160156 410.494141,197.498795 
	C409.478455,196.496353 408.548157,195.407349 407.542419,194.319717 
	C410.875580,190.956680 414.020264,187.783813 417.766602,184.003891 
	C426.539124,192.862305 435.270935,201.679596 444.253632,210.746063 
z"/>
<path fill="#DDBC60" opacity="1.000000" stroke="none" 
	d="
M454.732117,249.269318 
	C466.879761,261.363739 478.781586,273.203918 490.643646,285.004547 
	C485.364960,291.554688 476.258972,291.669067 469.870392,285.349365 
	C455.682190,271.314026 441.686859,257.083618 427.486206,243.061035 
	C423.109741,238.739441 418.323273,234.833115 413.492615,230.530106 
	C417.871307,226.305023 421.247070,223.047684 425.222900,219.211288 
	C434.930176,229.097809 444.708221,239.056427 454.732117,249.269318 
z"/>
<path fill="#DDBD61" opacity="1.000000" stroke="none" 
	d="
M177.186783,288.536865 
	C171.201462,290.458984 165.798676,291.033875 161.697800,286.193420 
	C183.851181,264.058502 205.838013,242.090012 229.042557,218.904816 
	C230.382675,220.736725 231.858292,223.200195 233.765625,225.264862 
	C237.341736,229.136002 237.197083,230.291687 233.300385,234.024231 
	C225.541794,241.456009 218.042282,249.157425 210.346146,256.655487 
	C199.453018,267.268219 188.478806,277.797760 177.186783,288.536865 
z"/>
<path fill="#DDBC5F" opacity="1.000000" stroke="none" 
	d="
M277.267090,254.733063 
	C292.404663,269.722107 307.293213,284.460114 321.537964,298.560822 
	C318.179932,302.691284 315.295471,306.239197 312.105988,310.162323 
	C297.936615,295.698303 284.282990,281.760742 271.157166,268.361969 
	C269.514435,268.679199 269.123199,268.636139 268.919617,268.811249 
	C262.128876,274.652374 262.214355,274.572540 255.651978,268.011292 
	C252.255081,264.615021 248.503845,261.573181 244.976974,258.428558 
	C251.518478,252.076797 257.194000,246.565918 263.552612,240.391769 
	C267.854919,244.893723 272.436493,249.687897 277.267090,254.733063 
M271.795624,256.392639 
	C268.786346,253.328018 265.777069,250.263397 263.021545,247.457214 
	C259.244141,250.938263 255.754059,254.154526 252.161880,257.464874 
	C255.733734,261.138611 258.961365,264.458282 262.802429,268.408905 
	C266.121124,264.346710 269.150452,260.638672 271.795624,256.392639 
z"/>
<path fill="#DCBC61" opacity="1.000000" stroke="none" 
	d="
M353.260132,276.260132 
	C365.295624,264.073181 377.080780,252.135925 389.403015,239.654694 
	C394.956238,245.320312 400.043945,250.310532 404.804932,255.595093 
	C405.481201,256.345703 405.128754,259.024109 404.296356,259.958801 
	C400.760925,263.928650 396.758514,267.478516 393.137268,271.377411 
	C390.550507,274.162506 388.353210,274.587433 385.827911,271.400146 
	C384.829254,270.139679 383.467163,269.167175 381.597473,267.442749 
	C367.619659,281.749756 353.867798,295.825531 339.917206,310.104706 
	C336.359467,306.516357 333.263702,303.393951 329.511566,299.609528 
	C337.423737,291.831543 345.216736,284.170654 353.260132,276.260132 
M387.134033,248.809174 
	C385.250397,250.654434 383.489380,252.650070 381.454285,254.309586 
	C378.423523,256.780975 378.899048,258.870300 381.637817,261.128204 
	C384.268097,263.296753 386.792389,265.593842 389.036804,267.549927 
	C392.866730,264.054596 396.273010,260.945892 400.674835,256.928619 
	C397.271484,253.964325 394.246460,251.164673 391.008789,248.637466 
	C390.292084,248.078049 388.823914,248.481354 387.134033,248.809174 
z"/>
<path fill="#DEBC61" opacity="1.000000" stroke="none" 
	d="
M448.809021,289.614441 
	C445.167114,287.042419 441.637024,284.829926 438.730713,281.981018 
	C424.629486,268.158081 410.693420,254.166626 396.706146,240.227524 
	C395.540710,239.066147 394.429565,237.850296 393.116364,236.474442 
	C396.615234,233.046143 399.930481,229.797806 402.965546,226.823975 
	C422.599152,246.521301 442.184540,266.170288 462.059998,286.110229 
	C458.970795,289.783783 454.350037,290.506927 448.809021,289.614441 
z"/>
<path fill="#DEBD61" opacity="1.000000" stroke="none" 
	d="
M250.364319,227.871704 
	C253.267624,230.361725 255.918304,232.629776 259.141937,235.388092 
	C253.799164,240.816666 249.339661,245.399475 244.823853,249.926102 
	C232.921677,261.856812 220.983551,273.751709 209.084183,285.685211 
	C204.627151,290.155029 195.877182,292.647705 189.401520,285.551575 
	C190.280197,284.515350 191.125626,283.363525 192.123749,282.364197 
	C209.885925,264.580475 227.649475,246.797958 245.483566,229.086533 
	C246.624191,227.953781 247.637253,225.044815 250.364319,227.871704 
z"/>
<path fill="#DCBC61" opacity="1.000000" stroke="none" 
	d="
M344.154114,200.131683 
	C345.847290,198.360672 347.285492,196.847824 348.861420,195.190125 
	C352.056549,204.154129 350.230835,214.012527 344.429901,218.174255 
	C344.226410,215.359894 344.042084,212.810593 343.803589,209.512344 
	C339.439117,212.762146 335.590668,215.233780 335.908264,221.271851 
	C336.310089,228.910843 336.012787,236.587189 335.995544,244.247360 
	C335.987701,247.727112 329.958649,256.472656 326.785034,257.471558 
	C326.114075,257.682770 325.030121,257.576843 324.522400,257.153809 
	C320.534485,253.830841 315.873169,250.991592 315.981201,244.751556 
	C316.102264,237.759567 315.512299,230.718628 316.146057,223.782532 
	C316.767517,216.980606 313.568939,212.879532 307.946686,208.818344 
	C307.776062,211.661041 307.639679,213.932953 307.483063,216.542191 
	C303.820190,216.673569 302.177185,214.557663 302.048584,211.260056 
	C301.854584,206.285446 301.997955,201.297684 301.997955,194.908005 
	C304.307434,197.043137 305.620056,198.598618 307.240875,199.701050 
	C320.136566,208.472290 324.483429,220.664261 322.053589,235.743301 
	C321.687683,238.014267 321.693237,240.458038 322.113403,242.712570 
	C322.580292,245.217499 323.718994,247.597229 324.565216,250.031464 
	C325.395660,250.087921 326.226105,250.144394 327.056580,250.200867 
	C328.031067,247.736969 329.741241,245.303925 329.846100,242.803558 
	C330.201691,234.325439 329.732697,225.810699 330.156403,217.338821 
	C330.277527,214.916428 331.936432,212.221756 333.628387,210.302734 
	C336.764862,206.745300 340.445251,203.667435 344.154114,200.131683 
z"/>
<path fill="#DCBB61" opacity="1.000000" stroke="none" 
	d="
M276.429260,310.440979 
	C280.412079,306.521088 284.013885,302.698792 287.969330,299.286377 
	C289.038391,298.364075 291.892944,297.858368 292.711670,298.566864 
	C298.070129,303.203949 303.094604,308.226990 308.612213,313.490265 
	C302.471161,319.813507 297.046326,325.399292 290.964264,331.661804 
	C285.196228,325.782349 279.919434,320.587677 274.969116,315.098572 
	C274.419891,314.489594 275.732208,312.201813 276.429260,310.440979 
z"/>
<path fill="#DBBB60" opacity="1.000000" stroke="none" 
	d="
M315.758179,356.241272 
	C312.992889,354.114136 310.477905,352.237152 308.014221,350.398468 
	C314.864685,343.568024 320.343475,338.105255 325.402832,333.060699 
	C330.696320,338.419586 336.213135,344.004547 341.725159,349.584656 
	C337.053467,354.150726 331.435272,359.641937 325.293274,365.645111 
	C322.530426,362.921295 319.269440,359.706360 315.758179,356.241272 
z"/>
<path fill="#DDBC60" opacity="1.000000" stroke="none" 
	d="
M355.212952,325.763855 
	C351.157288,322.056000 347.348511,318.597656 343.912445,315.477692 
	C350.277649,309.122284 355.862427,303.546112 361.149292,298.267395 
	C365.949341,303.172821 371.374451,308.717041 376.853760,314.316620 
	C372.056641,319.256165 366.464844,325.013977 359.703705,331.975830 
	C358.157715,329.803772 356.808777,327.908539 355.212952,325.763855 
z"/>
<path fill="#DABA60" opacity="1.000000" stroke="none" 
	d="
M333.955231,332.047974 
	C332.468781,330.711761 331.232147,329.625824 329.533875,328.134583 
	C333.238556,324.699371 336.588776,321.592865 340.269836,318.179565 
	C343.153839,321.436371 346.177460,324.850830 349.489319,328.590820 
	C346.717285,331.308411 343.463470,334.498352 339.155151,338.722046 
	C337.434204,336.488770 335.819641,334.393494 333.955231,332.047974 
z"/>
<path fill="#DABA5F" opacity="1.000000" stroke="none" 
	d="
M319.616486,325.263123 
	C319.964691,326.804413 320.666992,328.591980 320.070251,329.332092 
	C317.693695,332.279602 314.912262,334.900665 312.207092,337.719330 
	C308.914734,334.318939 305.855438,331.159271 302.264191,327.450195 
	C305.458099,325.019867 309.101379,322.247620 312.744629,319.475372 
	C312.906647,318.540894 313.068634,317.606415 313.230621,316.671936 
	C315.278259,319.457275 317.325928,322.242645 319.616486,325.263123 
z"/>
<path fill="#DDBD61" opacity="1.000000" stroke="none" 
	d="
M318.752899,310.739746 
	C320.890594,307.971649 322.778961,305.453766 324.913239,302.608032 
	C329.423004,307.130310 332.534027,310.250000 335.667053,313.391724 
	C333.429749,316.042145 331.566345,318.602722 329.336884,320.790283 
	C327.160980,322.925354 324.741699,324.186859 322.353210,320.660217 
	C321.354858,319.186127 319.786835,318.071747 318.388611,316.900360 
	C315.932129,314.842468 315.836609,312.909363 318.752899,310.739746 
z"/>
<path fill="#DCBC61" opacity="1.000000" stroke="none" 
	d="
M327.649994,266.814636 
	C328.563263,266.746613 329.240295,266.891693 329.917328,267.036804 
	C328.956543,269.477570 327.995789,271.918335 327.035004,274.359070 
	C326.278625,274.314545 325.522217,274.270020 324.765839,274.225494 
	C323.619904,271.690369 322.473938,269.155273 321.143829,266.212738 
	C324.010132,266.585297 325.711945,266.806519 327.649994,266.814636 
z"/>
<path fill="#EF4543" opacity="1.000000" stroke="none" 
	d="
M271.987701,256.661652 
	C269.150452,260.638672 266.121124,264.346710 262.802429,268.408905 
	C258.961365,264.458282 255.733734,261.138611 252.161880,257.464874 
	C255.754059,254.154526 259.244141,250.938263 263.021545,247.457214 
	C265.777069,250.263397 268.786346,253.328018 271.987701,256.661652 
z"/>
<path fill="#EF4543" opacity="1.000000" stroke="none" 
	d="
M387.417908,248.625275 
	C388.823914,248.481354 390.292084,248.078049 391.008789,248.637466 
	C394.246460,251.164673 397.271484,253.964325 400.674835,256.928619 
	C396.273010,260.945892 392.866730,264.054596 389.036804,267.549927 
	C386.792389,265.593842 384.268097,263.296753 381.637817,261.128204 
	C378.899048,258.870300 378.423523,256.780975 381.454285,254.309586 
	C383.489380,252.650070 385.250397,250.654434 387.417908,248.625275 
z"/>
</svg>